<?xml version="1.0" encoding="UTF-8" standalone="no"?>
<svg
   version="1.1"
   width="170"
   height="170"
   viewBox="0 0 170 170"
   id="svg889"
   sodipodi:docname="logo-icon-no-background.svg"
   inkscape:version="1.1.2 (b8e25be8, 2022-02-05)"
   xmlns:inkscape="http://www.inkscape.org/namespaces/inkscape"
   xmlns:sodipodi="http://sodipodi.sourceforge.net/DTD/sodipodi-0.dtd"
   xmlns="http://www.w3.org/2000/svg"
   xmlns:svg="http://www.w3.org/2000/svg">
  <defs
     id="defs893" />
  <sodipodi:namedview
     id="namedview891"
     pagecolor="#ffffff"
     bordercolor="#666666"
     borderopacity="1.0"
     inkscape:pageshadow="2"
     inkscape:pageopacity="0.0"
     inkscape:pagecheckerboard="0"
     showgrid="false"
     inkscape:zoom="1.143"
     inkscape:cx="272.52843"
     inkscape:cy="80.927384"
     inkscape:window-width="1512"
     inkscape:window-height="859"
     inkscape:window-x="0"
     inkscape:window-y="136"
     inkscape:window-maximized="1"
     inkscape:current-layer="svg874"
     width="999px"
     height="162px" />
  <g
     transform="translate(-0.60605517,0.01542161)"
     id="g887">
    <svg
       viewBox="0 0 396 64"
       data-background-color="#ffffff"
       preserveAspectRatio="xMidYMid meet"
       height="161"
       width="1000"
       version="1.1"
       id="svg885">
      <g
         id="tight-bounds"
         transform="translate(0.23999785,-0.00613033)">
        <svg
           viewBox="0 0 395.52 64.012261"
           height="64.01226"
           width="395.51999"
           version="1.1"
           id="svg880">
          <g
             id="g876">
            <svg
               viewBox="0 0 513.18544 83.055623"
               height="64.01226"
               width="395.51999"
               version="1.1"
               id="svg874">
              <g
                 id="g825" />
              <g
                 transform="translate(0,2.5253516)"
                 id="g872">
                <svg
                   viewBox="0 0 85.49215 82.642411"
                   height="82.64241"
                   width="85.492149"
                   version="1.1"
                   id="svg870">
                  <g
                     id="g868">
                    <svg
                       data-name="Layer 1"
                       viewBox="2 2 60 58"
                       x="0"
                       y="0"
                       height="82.64241"
                       width="85.492149"
                       class="icon-icon-0"
                       data-fill-palette-color="accent"
                       id="icon-0"
                       version="1.1">
                      <path
                         d="M 40.077,44.659 A 1.752,1.752 0 0 1 40.441,42.74 L 42.077,41.105 38.9,37.924 37.266,39.557 A 1.747,1.747 0 0 1 35.36,39.928 L 35.28,39.893 A 1.717,1.717 0 0 1 34.255,38.311 V 36 h -4.5 v 2.311 a 1.744,1.744 0 0 1 -1.091,1.611 l -0.014,0.006 a 1.748,1.748 0 0 1 -1.907,-0.371 l -1.633,-1.633 -3.182,3.181 1.635,1.634 A 1.775,1.775 0 0 1 22.316,45.75 H 20 v 4.5 h 2.311 a 1.775,1.775 0 0 1 1.248,3.01 l -1.636,1.64 3.182,3.181 1.634,-1.633 a 1.741,1.741 0 0 1 1.906,-0.371 l 0.08,0.035 a 1.717,1.717 0 0 1 1.025,1.582 V 60 h 4.5 v -2.311 a 1.744,1.744 0 0 1 1.091,-1.611 l 0.014,-0.006 a 1.746,1.746 0 0 1 1.907,0.371 L 38.9,58.076 42.077,54.9 40.442,53.266 a 1.775,1.775 0 0 1 1.247,-3.011 H 44 v -4.5 H 41.689 A 1.745,1.745 0 0 1 40.077,44.659 Z M 32,52 a 4,4 0 1 1 4,-4 4,4 0 0 1 -4,4 z"
                         fill="#ff5c5c"
                         data-fill-palette-color="accent"
                         id="path851" />
                      <path
                         d="M 35.968,11.685 A 3.958,3.958 0 0 0 35,9.382 V 5 a 3,3 0 0 0 -6,0 v 4.382 a 3.958,3.958 0 0 0 -0.968,2.3 L 19.083,28 H 16 v -2 h -2 v 6 h 2 v -2 h 1.986 l -5.13,9.354 A 4.886,4.886 0 0 0 14,45.471 V 52 h 2 V 45.259 L 24.478,30 H 39.522 L 48,45.259 V 52 h 2 v -6.529 a 4.887,4.887 0 0 0 1.144,-6.114 z M 32,10 a 2,2 0 1 1 -2,2 2,2 0 0 1 2,-2 z m -6.411,18 5,-9 h 2.822 l 5,9 z"
                         fill="#ff5c5c"
                         data-fill-palette-color="accent"
                         id="path853" />
                      <rect
                         x="52"
                         y="50"
                         width="2"
                         height="2"
                         fill="#ff5c5c"
                         data-fill-palette-color="accent"
                         id="rect855" />
                      <rect
                         x="56"
                         y="50"
                         width="2"
                         height="2"
                         fill="#ff5c5c"
                         data-fill-palette-color="accent"
                         id="rect857" />
                      <rect
                         x="60"
                         y="50"
                         width="2"
                         height="2"
                         fill="#ff5c5c"
                         data-fill-palette-color="accent"
                         id="rect859" />
                      <rect
                         x="2"
                         y="50"
                         width="2"
                         height="2"
                         fill="#ff5c5c"
                         data-fill-palette-color="accent"
                         id="rect861" />
                      <rect
                         x="6"
                         y="50"
                         width="2"
                         height="2"
                         fill="#ff5c5c"
                         data-fill-palette-color="accent"
                         id="rect863" />
                      <rect
                         x="10"
                         y="50"
                         width="2"
                         height="2"
                         fill="#ff5c5c"
                         data-fill-palette-color="accent"
                         id="rect865" />
                    </svg>
                  </g>
                </svg>
              </g>
            </svg>
          </g>
          <defs
             id="defs878" />
        </svg>
        <rect
           width="395.51999"
           height="64.01226"
           fill="none"
           stroke="none"
           visibility="hidden"
           id="rect882"
           x="0"
           y="0" />
      </g>
    </svg>
  </g>
</svg>
