<svg xmlns="http://www.w3.org/2000/svg" version="1.1" xmlns:xlink="http://www.w3.org/1999/xlink" xmlns:svgjs="http://svgjs.dev/svgjs" width="1000" height="1000" viewBox="0 0 1000 1000"><rect width="1000" height="1000" fill="#ffffff"></rect><g transform="matrix(0.7,0,0,0.7,149.57576138208913,443.6607951257343)"><svg viewBox="0 0 396 64" data-background-color="#ffffff" preserveAspectRatio="xMidYMid meet" height="161" width="1000" xmlns="http://www.w3.org/2000/svg" xmlns:xlink="http://www.w3.org/1999/xlink"><g id="tight-bounds" transform="matrix(1,0,0,1,0.23999784670388635,-0.006130328722235845)"><svg viewBox="0 0 395.52 64.0122606574445" height="64.0122606574445" width="395.52"><g><svg viewBox="0 0 513.1854407708366 83.05562348358703" height="64.0122606574445" width="395.52"><g><rect width="5.159612581605671" height="83.05562348358703" x="98.99898897036793" y="0" fill="#35185a" opacity="1" stroke-width="0" stroke="transparent" fill-opacity="1" class="rect-o-0" data-fill-palette-color="primary" rx="1%" id="o-0" data-palette-color="#35185a"></rect></g><g transform="matrix(1,0,0,1,117.66544077083661,0.20660602856613508)"><svg viewBox="0 0 395.52000000000004 82.64241142645476" height="82.64241142645476" width="395.52000000000004"><g id="textblocktransform"><svg viewBox="0 0 395.52000000000004 82.64241142645476" height="82.64241142645476" width="395.52000000000004" id="textblock"><g><svg viewBox="0 0 395.52000000000004 57.21394474179083" height="57.21394474179083" width="395.52000000000004"><g transform="matrix(1,0,0,1,0,0)"><svg width="395.52000000000004" viewBox="2 -37.5 345.6199951171875 50" height="57.21394474179083" data-palette-color="#35185a"><path d="M19.25 0.7L19.25 0.7Q14.25 0.7 10.35-1.54 6.45-3.78 4.23-7.86 2-11.95 2-17.5L2-17.5Q2-23.05 4.23-27.14 6.45-31.23 10.35-33.46 14.25-35.7 19.25-35.7L19.25-35.7Q24.25-35.7 28.15-33.46 32.05-31.23 34.27-27.14 36.5-23.05 36.5-17.5L36.5-17.5Q36.5-11.95 34.27-7.86 32.05-3.78 28.15-1.54 24.25 0.7 19.25 0.7ZM19.25-3.9L19.25-3.9Q23.28-3.9 25.98-5.71 28.68-7.53 30.04-10.61 31.4-13.7 31.4-17.5L31.4-17.5Q31.4-21.3 30.04-24.39 28.68-27.48 25.98-29.29 23.28-31.1 19.25-31.1L19.25-31.1Q15.23-31.1 12.53-29.29 9.83-27.48 8.46-24.39 7.1-21.3 7.1-17.5L7.1-17.5Q7.1-13.7 8.46-10.61 9.83-7.53 12.53-5.71 15.23-3.9 19.25-3.9ZM45.7 0L41.2 0 41.2-24.5 44.7-24.5 45.6-19.8 43.85-20.55Q46.32-23.3 48.69-24.15 51.05-25 53.3-25L53.3-25Q58.67-25 60.98-21.9 63.3-18.8 63.3-13.5L63.3-13.5 63.3 0 58.8 0 58.8-13.5Q58.8-17.4 57.35-19.2 55.9-21 52.4-21L52.4-21Q49.92-21 47.86-19.91 45.8-18.82 45.15-16.45L45.15-16.45 45.7-19.2 45.7 0ZM80.89 0.5L80.89 0.5Q76.57 0.5 73.62-1.28 70.67-3.05 69.16-5.99 67.64-8.93 67.64-12.45L67.64-12.45Q67.64-15.88 69.06-18.73 70.47-21.58 73.16-23.29 75.84-25 79.64-25L79.64-25Q82.69-25 85.08-23.79 87.47-22.58 88.83-20.26 90.19-17.95 90.19-14.65L90.19-14.65Q90.19-14.13 90.16-13.51 90.12-12.9 90-12.25L90-12.25 72.25-12.25Q72.57-8.85 73.87-6.95 75.17-5.05 77.14-4.28 79.12-3.5 81.44-3.5L81.44-3.5Q83.14-3.5 85-3.85 86.84-4.2 88.5-4.95L88.5-4.95 89.09-1.4Q87.67-0.78 85.62-0.14 83.57 0.5 80.89 0.5ZM72.64-15.35L72.64-15.35 85.55-15.35Q85.55-17.07 84.89-18.35 84.25-19.63 82.92-20.31 81.59-21 79.55-21L79.55-21Q76.55-21 74.93-19.51 73.32-18.03 72.64-15.35ZM99.69 0L94.94 0 94.94-35 116.29-35 116.29-30.7 99.69-30.7 99.69-20.45 112.49-20.45 112.49-16.15 99.69-16.15 99.69 0ZM122.69 0L117.89 0 117.89-24.5 121.59-24.5 122.14-20.45Q124.02-22.78 125.73-23.89 127.44-25 129.39-25L129.39-25Q130.02-25 130.54-24.85L130.54-24.85 130.09-19.9Q129.77-19.98 129.4-20.01 129.04-20.05 128.59-20.05L128.59-20.05Q126.64-20.05 125-19.19 123.37-18.32 122.69-17.3L122.69-17.3 122.69 0ZM139.04 0.5L139.04 0.5Q136.76 0.5 135.06-0.43 133.36-1.35 132.43-2.95 131.49-4.55 131.49-6.6L131.49-6.6Q131.49-8.68 132.4-10.16 133.31-11.65 134.85-12.64 136.39-13.63 138.29-14.21 140.19-14.8 142.23-15.06 144.26-15.33 146.14-15.35L146.14-15.35Q146.14-18.85 144.76-19.93 143.39-21 140.79-21L140.79-21Q139.41-21 137.85-20.58 136.29-20.15 134.34-18.8L134.34-18.8 133.69-22.45Q135.16-23.58 137.36-24.29 139.56-25 141.99-25L141.99-25Q145.09-25 146.99-23.91 148.89-22.83 149.76-20.25 150.64-17.68 150.64-13.25L150.64-13.25 150.64-8.25Q150.64-6.5 150.8-5.36 150.96-4.23 151.55-3.66 152.14-3.1 153.44-3.1L153.44-3.1 153.89-3.1 153.19 0.5 152.84 0.5Q150.66 0.5 149.48 0.08 148.29-0.35 147.66-1.15 147.04-1.95 146.54-3.1L146.54-3.1Q145.16-1.5 143.29-0.5 141.41 0.5 139.04 0.5ZM139.89-3.1L139.89-3.1Q141.69-3.1 143.38-4 145.06-4.9 146.14-6.4L146.14-6.4 146.14-12.25Q142.56-12.13 140.35-11.55 138.14-10.98 137.11-9.83 136.09-8.68 136.09-6.85L136.09-6.85Q136.09-4.88 137.15-3.99 138.21-3.1 139.89-3.1ZM161.84 0L157.34 0 157.34-24.5 160.84-24.5 161.74-19.8 159.99-20.55Q162.46-23.3 164.82-24.15 167.19-25 169.44-25L169.44-25Q174.81-25 177.12-21.9 179.44-18.8 179.44-13.5L179.44-13.5 179.44 0 174.94 0 174.94-13.5Q174.94-17.4 173.49-19.2 172.04-21 168.54-21L168.54-21Q166.06-21 164-19.91 161.94-18.82 161.29-16.45L161.29-16.45 161.84-19.2 161.84 0ZM189.73 0L185.23 0 185.23-37.5 189.73-37.5 189.73-13.45 198.73-24.5 204.23-24.5 194.48-13.1 204.48 0 198.98 0 189.73-12.45 189.73 0ZM221.58 0L208.63 0 208.63-35 221.58-35Q226.66-35 230.58-32.93 234.51-30.85 236.74-26.94 238.98-23.03 238.98-17.5L238.98-17.5Q238.98-11.98 236.74-8.06 234.51-4.15 230.58-2.08 226.66 0 221.58 0L221.58 0ZM213.38-30.7L213.38-4.3 221.58-4.3Q225.58-4.3 228.29-5.96 231.01-7.63 232.39-10.6 233.78-13.58 233.78-17.5L233.78-17.5Q233.78-21.43 232.39-24.4 231.01-27.38 228.29-29.04 225.58-30.7 221.58-30.7L221.58-30.7 213.38-30.7ZM255.48 0.5L255.48 0.5Q251.15 0.5 248.2-1.28 245.25-3.05 243.74-5.99 242.23-8.93 242.23-12.45L242.23-12.45Q242.23-15.88 243.64-18.73 245.05-21.58 247.74-23.29 250.43-25 254.23-25L254.23-25Q257.28-25 259.67-23.79 262.05-22.58 263.42-20.26 264.78-17.95 264.78-14.65L264.78-14.65Q264.78-14.13 264.74-13.51 264.7-12.9 264.58-12.25L264.58-12.25 246.83-12.25Q247.15-8.85 248.45-6.95 249.75-5.05 251.73-4.28 253.7-3.5 256.03-3.5L256.03-3.5Q257.73-3.5 259.58-3.85 261.43-4.2 263.08-4.95L263.08-4.95 263.68-1.4Q262.25-0.78 260.2-0.14 258.15 0.5 255.48 0.5ZM247.23-15.35L247.23-15.35 260.13-15.35Q260.13-17.07 259.48-18.35 258.83-19.63 257.5-20.31 256.18-21 254.13-21L254.13-21Q251.13-21 249.52-19.51 247.9-18.03 247.23-15.35ZM276.28 0.5L276.28 0.5Q273.03 0.5 270.89-0.28 268.75-1.05 267.88-1.65L267.88-1.65 268.43-6Q269.23-5.3 271.25-4.4 273.28-3.5 276.08-3.5L276.08-3.5Q278.45-3.5 279.71-4.3 280.98-5.1 280.98-6.55L280.98-6.55Q280.98-7.83 280.16-8.61 279.35-9.4 278.21-9.86 277.08-10.33 276.08-10.6L276.08-10.6Q274.4-11.05 272.61-11.74 270.83-12.43 269.6-13.8 268.38-15.18 268.38-17.65L268.38-17.65Q268.38-19.53 269.28-21.21 270.18-22.9 272.2-23.95 274.23-25 277.58-25L277.58-25Q280.03-25 281.56-24.49 283.1-23.98 284.23-23.4L284.23-23.4 283.68-19.3Q282.6-20.2 281.18-20.83 279.75-21.45 277.68-21.45L277.68-21.45Q275.58-21.45 274.25-20.66 272.93-19.88 272.93-18.15L272.93-18.15Q272.93-16.43 274.34-15.7 275.75-14.98 278.63-14.1L278.63-14.1Q279.53-13.85 280.71-13.38 281.9-12.9 283.03-12.1 284.15-11.3 284.89-10.01 285.63-8.72 285.63-6.8L285.63-6.8Q285.63-5.18 284.85-3.49 284.08-1.8 282.05-0.65 280.03 0.5 276.28 0.5ZM294.52 0L290.02 0 290.02-24.5 294.52-24.5 294.52 0ZM294.52-30L290.02-30 290.02-35 294.52-35 294.52-30ZM310.52 12.5L310.52 12.5Q307.17 12.5 304.53 11.68 301.9 10.85 300.38 9.22 298.87 7.6 298.87 5.2L298.87 5.2Q298.87 3.2 300.01 1.76 301.15 0.33 303.12-0.55L303.12-0.55Q301.95-1.13 301.33-1.91 300.72-2.7 300.72-3.65L300.72-3.65Q300.72-4.78 301.41-5.69 302.1-6.6 303.62-7.2L303.62-7.2Q301.57-8.47 300.47-10.64 299.37-12.8 299.37-15.45L299.37-15.45Q299.37-18.13 300.57-20.29 301.77-22.45 304.03-23.73 306.3-25 309.47-25L309.47-25Q311.17-25 312.68-24.5 314.2-24 315.47-23.1L315.47-23.1Q316.6-23.75 318.13-24.18 319.67-24.6 321.57-24.6L321.57-24.6Q321.7-24.6 321.78-24.6 321.87-24.6 321.97-24.6L321.97-24.6 321.42-21.6Q321.12-21.6 320.85-21.6 320.57-21.6 320.27-21.6L320.27-21.6Q320.02-21.6 319.12-21.53 318.22-21.45 317.47-21.25L317.47-21.25Q318.5-20.05 319.06-18.56 319.62-17.07 319.62-15.45L319.62-15.45Q319.62-12.65 318.41-10.44 317.2-8.22 314.92-6.94 312.65-5.65 309.47-5.65L309.47-5.65Q308.57-5.65 307.75-5.76 306.92-5.88 306.17-6.1L306.17-6.1Q305.02-5.73 305.02-4.8L305.02-4.8Q305.02-4.25 305.67-3.84 306.32-3.43 307.77-3.2L307.77-3.2 314.32-2.15Q318.3-1.53 320.46 0.15 322.62 1.83 322.62 4.9L322.62 4.9Q322.62 7.45 321.13 9.14 319.65 10.83 316.92 11.66 314.2 12.5 310.52 12.5ZM310.92 8.5L310.92 8.5Q314.37 8.5 316.22 7.61 318.07 6.73 318.07 5L318.07 5Q318.07 3.65 316.91 2.88 315.75 2.1 313.57 1.7L313.57 1.7 306.6 0.53Q305.22 1.13 304.2 2.14 303.17 3.15 303.17 4.5L303.17 4.5Q303.17 6.6 305.28 7.55 307.4 8.5 310.92 8.5ZM309.47-9.25L309.47-9.25Q312.32-9.25 313.82-10.96 315.32-12.68 315.32-15.4L315.32-15.4Q315.32-18.03 313.82-19.71 312.32-21.4 309.47-21.4L309.47-21.4Q306.62-21.4 305.15-19.71 303.67-18.03 303.67-15.4L303.67-15.4Q303.67-12.68 305.15-10.96 306.62-9.25 309.47-9.25ZM330.02 0L325.52 0 325.52-24.5 329.02-24.5 329.92-19.8 328.17-20.55Q330.64-23.3 333.01-24.15 335.37-25 337.62-25L337.62-25Q342.99-25 345.31-21.9 347.62-18.8 347.62-13.5L347.62-13.5 347.62 0 343.12 0 343.12-13.5Q343.12-17.4 341.67-19.2 340.22-21 336.72-21L336.72-21Q334.24-21 332.18-19.91 330.12-18.82 329.47-16.45L329.47-16.45 330.02-19.2 330.02 0Z" opacity="1" transform="matrix(1,0,0,1,0,0)" fill="#35185a" class="wordmark-text-0" data-fill-palette-color="primary" id="text-0"></path></svg></g></svg></g><g transform="matrix(1,0,0,1,0,70.72078396065385)"><svg viewBox="0 0 232.20979200000002 11.921627465800913" height="11.921627465800913" width="232.20979200000002"><g transform="matrix(1,0,0,1,0,0)"><svg width="232.20979200000002" viewBox="0.699999988079071 -35.900001525878906 908.5700073242188 46.650001525878906" height="11.921627465800913" data-palette-color="#35185a"><path d="M19.1 0L12.05 0 12.05-15 0.7-32.4 0.7-35.4 9.1-35.4 15.1-22.6 16.1-22.6 22.05-35.4 30.55-35.4 30.55-32.4 18.8-14.7 19.1-9.65 19.1 0ZM46.4 0.5L46.4 0.5Q43.6 0.5 40.92-0.28 38.25-1.05 36.1-3.05 33.95-5.05 32.7-8.6 31.45-12.15 31.45-17.7L31.45-17.7Q31.45-23.25 32.7-26.8 33.95-30.35 36.1-32.35 38.25-34.35 40.92-35.13 43.6-35.9 46.4-35.9L46.4-35.9Q49.35-35.9 52.02-35.1 54.7-34.3 56.8-32.3 58.9-30.3 60.12-26.75 61.35-23.2 61.35-17.7L61.35-17.7Q61.35-12.2 60.12-8.65 58.9-5.1 56.8-3.1 54.7-1.1 52.02-0.3 49.35 0.5 46.4 0.5ZM46.4-6.5L46.4-6.5Q49.55-6.5 51.15-7.83 52.75-9.15 53.32-11.68 53.9-14.2 53.9-17.7L53.9-17.7Q53.9-21.25 53.32-23.75 52.75-26.25 51.15-27.58 49.55-28.9 46.4-28.9L46.4-28.9Q43.3-28.9 41.67-27.55 40.05-26.2 39.5-23.7 38.95-21.2 38.95-17.7L38.95-17.7Q38.95-14.25 39.5-11.73 40.05-9.2 41.67-7.85 43.3-6.5 46.4-6.5ZM79.45 0.5L79.45 0.5Q74.3 0.5 71.37-1.2 68.45-2.9 67.22-6.23 66-9.55 66-14.35L66-14.35 66-27.35 66.05-32.4 66-35.4 73.09-35.4 73.09-13.85Q73.09-10.35 74.5-8.18 75.9-6 79.45-6L79.45-6Q83-6 84.47-8.03 85.95-10.05 85.95-13.85L85.95-13.85 85.95-35.4 92.9-35.4 92.9-14.35Q92.9-9.65 91.72-6.33 90.55-3 87.62-1.25 84.7 0.5 79.45 0.5ZM106.39 0L99.39 0 99.39-27.35 98.39-32.4 99.39-35.4 111.39-35.4Q115.04-35.4 117.97-34.27 120.89-33.15 122.62-30.48 124.34-27.8 124.34-23.1L124.34-23.1Q124.34-18.65 122.67-16 120.99-13.35 118.04-12.05L118.04-12.05 119.49-10.75 123.94-5.55 126.79-3 126.79 0 117.54 0 110.54-10.65 106.39-10.65 106.39-8.05 106.89-3.05 106.39 0ZM105.89-28.9L106.39-17 111.29-17Q114.59-17 115.79-18.73 116.99-20.45 116.99-23.1L116.99-23.1Q116.99-25.9 115.72-27.4 114.44-28.9 111.09-28.9L111.09-28.9 105.89-28.9ZM159.24 0L150.49 0 141.49-27.45 139.99-32.4 139.99-35.4 147.39-35.4 154.44-7.6 155.44-7.6 162.39-35.4 169.69-35.4 169.69-32.4 168.19-27.45 159.24 0ZM180.89 0L173.89 0 173.89-27.4 173.39-32.4 173.89-35.4 180.89-35.4 180.89 0ZM197.18 0.5L197.18 0.5Q193.33 0.5 190.63-0.53 187.93-1.55 186.58-2.7L186.58-2.7 186.58-9.6Q188.33-8.6 191.26-7.5 194.18-6.4 197.73-6.4L197.73-6.4Q200.03-6.4 201.16-7.3 202.28-8.2 202.28-9.75L202.28-9.75Q202.28-11.15 201.38-12.05 200.48-12.95 198.68-13.7 196.88-14.45 194.08-15.45L194.08-15.45Q190.08-16.9 187.88-19.2 185.68-21.5 185.68-25.4L185.68-25.4Q185.68-28.15 186.91-30.55 188.13-32.95 190.76-34.43 193.38-35.9 197.48-35.9L197.48-35.9Q199.08-35.9 200.66-35.77 202.23-35.65 203.33-35.45L203.33-35.45 208.98-31.3 206.48-26.2 197.33-29.45Q195.53-29.45 194.36-28.58 193.18-27.7 193.18-26.1L193.18-26.1Q193.18-24.1 194.86-23.05 196.53-22 199.58-21L199.58-21Q205.38-19.1 207.73-16.43 210.08-13.75 210.08-10.15L210.08-10.15Q210.08-7.25 208.88-4.83 207.68-2.4 204.86-0.95 202.03 0.5 197.18 0.5ZM222.18 0L215.18 0 215.18-27.4 214.68-32.4 215.18-35.4 222.18-35.4 222.18 0ZM242.33 0.5L242.33 0.5Q239.53 0.5 236.85-0.28 234.18-1.05 232.03-3.05 229.88-5.05 228.63-8.6 227.38-12.15 227.38-17.7L227.38-17.7Q227.38-23.25 228.63-26.8 229.88-30.35 232.03-32.35 234.18-34.35 236.85-35.13 239.53-35.9 242.33-35.9L242.33-35.9Q245.28-35.9 247.95-35.1 250.63-34.3 252.73-32.3 254.83-30.3 256.05-26.75 257.28-23.2 257.28-17.7L257.28-17.7Q257.28-12.2 256.05-8.65 254.83-5.1 252.73-3.1 250.63-1.1 247.95-0.3 245.28 0.5 242.33 0.5ZM242.33-6.5L242.33-6.5Q245.48-6.5 247.08-7.83 248.68-9.15 249.25-11.68 249.83-14.2 249.83-17.7L249.83-17.7Q249.83-21.25 249.25-23.75 248.68-26.25 247.08-27.58 245.48-28.9 242.33-28.9L242.33-28.9Q239.23-28.9 237.6-27.55 235.98-26.2 235.43-23.7 234.88-21.2 234.88-17.7L234.88-17.7Q234.88-14.25 235.43-11.73 235.98-9.2 237.6-7.85 239.23-6.5 242.33-6.5ZM270.98 0L263.48 0 263.48-27.35 262.48-32.35 263.48-35.35 269.53-35.35 281.63-17.75 284.03-13.6 284.53-13.6 284.53-35.35 291.88-35.35 291.88-32.35 291.38-27.35 291.38 0 285.63 0 270.98-21.6 270.48-21.6 270.48-18.6 270.98 0ZM306.37-3.5L299.17 10.75 297.87 10.3 300.37 0 297.37-4 301.37-7.85 306.37-3.5ZM339.92 0.5L339.92 0.5Q336.97 0.5 333.99-0.35 331.02-1.2 328.54-3.23 326.07-5.25 324.57-8.78 323.07-12.3 323.07-17.7L323.07-17.7Q323.07-23.15 325.19-27.23 327.32-31.3 331.02-33.6 334.72-35.9 339.42-35.9L339.42-35.9Q341.67-35.9 343.74-35.5 345.82-35.1 346.92-34.6L346.92-34.6 352.47-29.55 348.97-24.3 340.42-28.7Q337.62-28.7 335.37-27.35 333.12-26 331.79-23.53 330.47-21.05 330.47-17.7L330.47-17.7Q330.47-13.85 331.84-11.35 333.22-8.85 335.62-7.63 338.02-6.4 340.97-6.4L340.97-6.4Q343.97-6.4 346.12-6.93 348.27-7.45 349.72-8.13 351.17-8.8 351.92-9.3L351.92-9.3 351.92-2.5Q350.52-1.55 347.64-0.53 344.77 0.5 339.92 0.5ZM370.91 0.5L370.91 0.5Q368.12 0.5 365.44-0.28 362.76-1.05 360.62-3.05 358.46-5.05 357.21-8.6 355.96-12.15 355.96-17.7L355.96-17.7Q355.96-23.25 357.21-26.8 358.46-30.35 360.62-32.35 362.76-34.35 365.44-35.13 368.12-35.9 370.91-35.9L370.91-35.9Q373.87-35.9 376.54-35.1 379.21-34.3 381.31-32.3 383.41-30.3 384.64-26.75 385.87-23.2 385.87-17.7L385.87-17.7Q385.87-12.2 384.64-8.65 383.41-5.1 381.31-3.1 379.21-1.1 376.54-0.3 373.87 0.5 370.91 0.5ZM370.91-6.5L370.91-6.5Q374.06-6.5 375.66-7.83 377.26-9.15 377.84-11.68 378.41-14.2 378.41-17.7L378.41-17.7Q378.41-21.25 377.84-23.75 377.26-26.25 375.66-27.58 374.06-28.9 370.91-28.9L370.91-28.9Q367.81-28.9 366.19-27.55 364.56-26.2 364.01-23.7 363.46-21.2 363.46-17.7L363.46-17.7Q363.46-14.25 364.01-11.73 364.56-9.2 366.19-7.85 367.81-6.5 370.91-6.5ZM402.96 0L392.06 0 392.06-27.35 391.06-32.35 392.06-35.4 402.96-35.4Q406.56-35.4 409.89-34.73 413.21-34.05 415.84-32.2 418.46-30.35 419.99-26.9 421.51-23.45 421.51-17.95L421.51-17.95Q421.51-12.45 419.96-8.93 418.41-5.4 415.76-3.45 413.11-1.5 409.79-0.75 406.46 0 402.96 0L402.96 0ZM399.16-28.9L399.16-6.5 404.46-6.5Q409.66-6.5 411.86-9.58 414.06-12.65 414.06-17.95L414.06-17.95Q414.06-23.25 411.84-26.08 409.61-28.9 404.46-28.9L404.46-28.9 399.16-28.9ZM451.61 0L427.71 0 426.71-3 427.71-8 427.71-35.4 450.41-35.4 452.91-33.9 450.11-28.4 445.11-28.9 434.61-28.9 434.61-21.15 448.11-21.15 448.11-14.9 443.21-14.9 434.61-15.4 434.61-6.5 450.61-6.5 454.56-3.2 451.61 0ZM469.46 0L458.56 0 458.56-27.35 457.56-32.35 458.56-35.4 469.46-35.4Q473.06-35.4 476.38-34.73 479.71-34.05 482.33-32.2 484.96-30.35 486.48-26.9 488.01-23.45 488.01-17.95L488.01-17.95Q488.01-12.45 486.46-8.93 484.91-5.4 482.26-3.45 479.61-1.5 476.28-0.75 472.96 0 469.46 0L469.46 0ZM465.66-28.9L465.66-6.5 470.96-6.5Q476.16-6.5 478.36-9.58 480.56-12.65 480.56-17.95L480.56-17.95Q480.56-23.25 478.33-26.08 476.11-28.9 470.96-28.9L470.96-28.9 465.66-28.9ZM523.3 0L513.4 0 504.4-27.45 502.9-32.4 502.9-35.4 510.35-35.4 517.6-8.6 518.6-8.6 523.9-35.4 534-35.4 538.2-14.95 539.2-8.6 540.2-8.6 547.4-35.4 554.8-35.4 554.8-32.4 553.3-27.45 544.4 0 534.5 0 529.3-27.6 528.25-27.6 527.2-20.45 523.3 0ZM566 0L559 0 559-27.4 558.5-32.4 559-35.4 566-35.4 566 0ZM588.25 0L581.25 0 581.25-29 570.25-28.5 570.25-35.4 599.5-35.4 599.5-28.5 588.25-29 588.25-8 588.8-3 588.25 0ZM611.74 0L604.24 0 604.24-27.35 603.74-32.35 604.24-35.4 611.24-35.4 611.24-20.8 625.69-20.8 625.69-35.4 632.69-35.4 632.69-16.6 633.19-13.15 633.19 0 625.69 0 625.69-14.25 611.24-14.25 611.24-10.2 611.74 0ZM659.19 0L652.19 0 652.19-27.35 651.19-32.4 652.19-35.4 664.19-35.4Q667.84-35.4 670.76-34.27 673.69-33.15 675.41-30.48 677.14-27.8 677.14-23.1L677.14-23.1Q677.14-18.4 675.29-15.68 673.44-12.95 670.16-11.8 666.89-10.65 662.69-10.65L662.69-10.65 659.19-10.65 659.19-8.05 659.69-3.05 659.19 0ZM658.69-28.9L659.19-17 664.09-17Q667.39-17 668.59-18.73 669.79-20.45 669.79-23.1L669.79-23.1Q669.79-25.9 668.51-27.4 667.24-28.9 663.89-28.9L663.89-28.9 658.69-28.9ZM689.14 0L682.14 0 682.14-27.35 681.14-32.4 682.14-35.4 694.14-35.4Q697.79-35.4 700.71-34.27 703.64-33.15 705.36-30.48 707.09-27.8 707.09-23.1L707.09-23.1Q707.09-18.65 705.41-16 703.74-13.35 700.79-12.05L700.79-12.05 702.24-10.75 706.69-5.55 709.54-3 709.54 0 700.29 0 693.29-10.65 689.14-10.65 689.14-8.05 689.64-3.05 689.14 0ZM688.64-28.9L689.14-17 694.04-17Q697.34-17 698.54-18.73 699.74-20.45 699.74-23.1L699.74-23.1Q699.74-25.9 698.46-27.4 697.19-28.9 693.84-28.9L693.84-28.9 688.64-28.9ZM737.93 0L714.03 0 713.03-3 714.03-8 714.03-35.4 736.73-35.4 739.23-33.9 736.43-28.4 731.43-28.9 720.93-28.9 720.93-21.15 734.43-21.15 734.43-14.9 729.53-14.9 720.93-15.4 720.93-6.5 736.93-6.5 740.88-3.2 737.93 0ZM758.93 0.5L758.93 0.5Q755.98 0.5 753.01-0.35 750.03-1.2 747.56-3.23 745.08-5.25 743.58-8.78 742.08-12.3 742.08-17.7L742.08-17.7Q742.08-23.15 744.21-27.23 746.33-31.3 750.03-33.6 753.73-35.9 758.43-35.9L758.43-35.9Q760.68-35.9 762.76-35.5 764.83-35.1 765.93-34.6L765.93-34.6 771.48-29.55 767.98-24.3 759.43-28.7Q756.63-28.7 754.38-27.35 752.13-26 750.81-23.53 749.48-21.05 749.48-17.7L749.48-17.7Q749.48-13.85 750.86-11.35 752.23-8.85 754.63-7.63 757.03-6.4 759.98-6.4L759.98-6.4Q762.98-6.4 765.13-6.93 767.28-7.45 768.73-8.13 770.18-8.8 770.93-9.3L770.93-9.3 770.93-2.5Q769.53-1.55 766.66-0.53 763.78 0.5 758.93 0.5ZM783.78 0L776.78 0 776.78-27.4 776.28-32.4 776.78-35.4 783.78-35.4 783.78 0ZM800.08 0.5L800.08 0.5Q796.23 0.5 793.53-0.53 790.83-1.55 789.48-2.7L789.48-2.7 789.48-9.6Q791.23-8.6 794.15-7.5 797.08-6.4 800.63-6.4L800.63-6.4Q802.93-6.4 804.05-7.3 805.18-8.2 805.18-9.75L805.18-9.75Q805.18-11.15 804.28-12.05 803.38-12.95 801.58-13.7 799.78-14.45 796.98-15.45L796.98-15.45Q792.98-16.9 790.78-19.2 788.58-21.5 788.58-25.4L788.58-25.4Q788.58-28.15 789.8-30.55 791.03-32.95 793.65-34.43 796.28-35.9 800.38-35.9L800.38-35.9Q801.98-35.9 803.55-35.77 805.13-35.65 806.23-35.45L806.23-35.45 811.88-31.3 809.38-26.2 800.23-29.45Q798.43-29.45 797.25-28.58 796.08-27.7 796.08-26.1L796.08-26.1Q796.08-24.1 797.75-23.05 799.43-22 802.48-21L802.48-21Q808.28-19.1 810.63-16.43 812.98-13.75 812.98-10.15L812.98-10.15Q812.98-7.25 811.78-4.83 810.58-2.4 807.75-0.95 804.93 0.5 800.08 0.5ZM825.07 0L818.07 0 818.07-27.4 817.57-32.4 818.07-35.4 825.07-35.4 825.07 0ZM845.22 0.5L845.22 0.5Q842.42 0.5 839.75-0.28 837.07-1.05 834.92-3.05 832.77-5.05 831.52-8.6 830.27-12.15 830.27-17.7L830.27-17.7Q830.27-23.25 831.52-26.8 832.77-30.35 834.92-32.35 837.07-34.35 839.75-35.13 842.42-35.9 845.22-35.9L845.22-35.9Q848.17-35.9 850.85-35.1 853.52-34.3 855.62-32.3 857.72-30.3 858.95-26.75 860.17-23.2 860.17-17.7L860.17-17.7Q860.17-12.2 858.95-8.65 857.72-5.1 855.62-3.1 853.52-1.1 850.85-0.3 848.17 0.5 845.22 0.5ZM845.22-6.5L845.22-6.5Q848.37-6.5 849.97-7.83 851.57-9.15 852.15-11.68 852.72-14.2 852.72-17.7L852.72-17.7Q852.72-21.25 852.15-23.75 851.57-26.25 849.97-27.58 848.37-28.9 845.22-28.9L845.22-28.9Q842.12-28.9 840.5-27.55 838.87-26.2 838.32-23.7 837.77-21.2 837.77-17.7L837.77-17.7Q837.77-14.25 838.32-11.73 838.87-9.2 840.5-7.85 842.12-6.5 845.22-6.5ZM873.87 0L866.37 0 866.37-27.35 865.37-32.35 866.37-35.35 872.42-35.35 884.52-17.75 886.92-13.6 887.42-13.6 887.42-35.35 894.77-35.35 894.77-32.35 894.27-27.35 894.27 0 888.52 0 873.87-21.6 873.37-21.6 873.37-18.6 873.87 0ZM909.27-4L904.77 0.5 900.27-4 904.77-8.5 909.27-4Z" opacity="1" transform="matrix(1,0,0,1,0,0)" fill="#35185a" class="slogan-text-1" data-fill-palette-color="secondary" id="text-1"></path></svg></g></svg></g></svg></g></svg></g><g transform="matrix(1,0,0,1,0,0.20660602856613508)"><svg viewBox="0 0 85.49214975150493 82.64241142645476" height="82.64241142645476" width="85.49214975150493"><g><svg xmlns="http://www.w3.org/2000/svg" data-name="Layer 1" viewBox="2 2 60 58" x="0" y="0" height="82.64241142645476" width="85.49214975150493" class="icon-icon-0" data-fill-palette-color="accent" id="icon-0"><path d="M40.077 44.659a1.752 1.752 0 0 1 0.364-1.919l1.636-1.635L38.9 37.924l-1.634 1.633a1.747 1.747 0 0 1-1.906 0.371l-0.08-0.035a1.717 1.717 0 0 1-1.025-1.582V36h-4.5v2.311a1.744 1.744 0 0 1-1.091 1.611l-0.014 0.006a1.748 1.748 0 0 1-1.907-0.371l-1.633-1.633-3.182 3.181 1.635 1.634a1.775 1.775 0 0 1-1.247 3.011H20v4.5h2.311a1.775 1.775 0 0 1 1.248 3.01L21.923 54.9l3.182 3.181 1.634-1.633a1.741 1.741 0 0 1 1.906-0.371l0.08 0.035a1.717 1.717 0 0 1 1.025 1.582V60h4.5V57.689a1.744 1.744 0 0 1 1.091-1.611l0.014-0.006a1.746 1.746 0 0 1 1.907 0.371L38.9 58.076 42.077 54.9l-1.635-1.634a1.775 1.775 0 0 1 1.247-3.011H44v-4.5H41.689A1.745 1.745 0 0 1 40.077 44.659ZM32 52a4 4 0 1 1 4-4A4 4 0 0 1 32 52Z" fill="#ff5c5c" data-fill-palette-color="accent"></path><path d="M35.968 11.685A3.958 3.958 0 0 0 35 9.382V5a3 3 0 0 0-6 0V9.382a3.958 3.958 0 0 0-0.968 2.3L19.083 28H16V26H14v6h2V30h1.986l-5.13 9.354A4.886 4.886 0 0 0 14 45.471V52h2V45.259L24.478 30H39.522L48 45.259V52h2V45.471a4.887 4.887 0 0 0 1.144-6.114ZM32 10a2 2 0 1 1-2 2A2 2 0 0 1 32 10ZM25.589 28l5-9h2.822l5 9Z" fill="#ff5c5c" data-fill-palette-color="accent"></path><rect x="52" y="50" width="2" height="2" fill="#ff5c5c" data-fill-palette-color="accent"></rect><rect x="56" y="50" width="2" height="2" fill="#ff5c5c" data-fill-palette-color="accent"></rect><rect x="60" y="50" width="2" height="2" fill="#ff5c5c" data-fill-palette-color="accent"></rect><rect x="2" y="50" width="2" height="2" fill="#ff5c5c" data-fill-palette-color="accent"></rect><rect x="6" y="50" width="2" height="2" fill="#ff5c5c" data-fill-palette-color="accent"></rect><rect x="10" y="50" width="2" height="2" fill="#ff5c5c" data-fill-palette-color="accent"></rect></svg></g></svg></g></svg></g><defs></defs></svg><rect width="395.52" height="64.0122606574445" fill="none" stroke="none" visibility="hidden"></rect></g></svg></g></svg>