<?xml version="1.0" encoding="UTF-8" standalone="no"?>
<svg
   version="1.1"
   width="720"
   height="150"
   viewBox="0 0 720 150"
   id="svg891"
   sodipodi:docname="logo-white.svg"
   inkscape:version="1.1.2 (b8e25be8, 2022-02-05)"
   xmlns:inkscape="http://www.inkscape.org/namespaces/inkscape"
   xmlns:sodipodi="http://sodipodi.sourceforge.net/DTD/sodipodi-0.dtd"
   xmlns="http://www.w3.org/2000/svg"
   xmlns:svg="http://www.w3.org/2000/svg">
  <defs
     id="defs895" />
  <sodipodi:namedview
     id="namedview893"
     pagecolor="#ffffff"
     bordercolor="#666666"
     borderopacity="1.0"
     inkscape:pageshadow="2"
     inkscape:pageopacity="0.0"
     inkscape:pagecheckerboard="0"
     showgrid="false"
     inkscape:zoom="0.637"
     inkscape:cx="500"
     inkscape:cy="374.4113"
     inkscape:window-width="1512"
     inkscape:window-height="859"
     inkscape:window-x="0"
     inkscape:window-y="136"
     inkscape:window-maximized="1"
     inkscape:current-layer="svg891" />
  <g
     transform="matrix(0.7,0,0,0.7,0.4045975,30.98751)"
     id="g889">
    <svg
       viewBox="0 0 396 64"
       data-background-color="#ffffff"
       preserveAspectRatio="xMidYMid meet"
       height="161"
       width="1000"
       version="1.1"
       id="svg887">
      <g
         id="tight-bounds"
         transform="translate(0.23999785,-0.00613033)">
        <svg
           viewBox="0 0 395.52 64.012261"
           height="64.01226"
           width="395.51999"
           version="1.1"
           id="svg882">
          <g
             id="g878">
            <svg
               viewBox="0 0 513.18544 83.055623"
               height="64.01226"
               width="395.51999"
               version="1.1"
               id="svg876">
              <g
                 id="g827">
                <rect
                   width="5.1596127"
                   height="83.055626"
                   x="98.998985"
                   y="0"
                   fill="#ffffff"
                   opacity="1"
                   stroke-width="0"
                   stroke="transparent"
                   fill-opacity="1"
                   class="rect-o-0"
                   data-fill-palette-color="primary"
                   rx="1%"
                   id="o-0"
                   data-palette-color="#35185a" />
              </g>
              <g
                 transform="translate(117.66544,0.20660603)"
                 id="g851">
                <svg
                   viewBox="0 0 395.52 82.642411"
                   height="82.64241"
                   width="395.51999"
                   version="1.1"
                   id="svg849">
                  <g
                     id="textblocktransform">
                    <svg
                       viewBox="0 0 395.52 82.642411"
                       height="82.64241"
                       width="395.51999"
                       id="textblock"
                       version="1.1">
                      <g
                         id="g836">
                        <svg
                           viewBox="0 0 395.52 57.213945"
                           height="57.213943"
                           width="395.51999"
                           version="1.1"
                           id="svg834">
                          <g
                             id="g832">
                            <svg
                               width="395.51999"
                               viewBox="2 -37.5 345.62 50"
                               height="57.213943"
                               data-palette-color="#35185a"
                               version="1.1"
                               id="svg830">
                              <path
                                 d="m 19.25,0.7 v 0 q -5,0 -8.9,-2.24 Q 6.45,-3.78 4.23,-7.86 2,-11.95 2,-17.5 v 0 q 0,-5.55 2.23,-9.64 2.22,-4.09 6.12,-6.32 3.9,-2.24 8.9,-2.24 v 0 q 5,0 8.9,2.24 3.9,2.23 6.12,6.32 2.23,4.09 2.23,9.64 v 0 q 0,5.55 -2.23,9.64 -2.22,4.08 -6.12,6.32 -3.9,2.24 -8.9,2.24 z m 0,-4.6 v 0 q 4.03,0 6.73,-1.81 2.7,-1.82 4.06,-4.9 1.36,-3.09 1.36,-6.89 v 0 q 0,-3.8 -1.36,-6.89 -1.36,-3.09 -4.06,-4.9 -2.7,-1.81 -6.73,-1.81 v 0 q -4.02,0 -6.72,1.81 -2.7,1.81 -4.07,4.9 -1.36,3.09 -1.36,6.89 v 0 q 0,3.8 1.36,6.89 1.37,3.08 4.07,4.9 2.7,1.81 6.72,1.81 z M 45.7,0 h -4.5 v -24.5 h 3.5 l 0.9,4.7 -1.75,-0.75 q 2.47,-2.75 4.84,-3.6 Q 51.05,-25 53.3,-25 v 0 q 5.37,0 7.68,3.1 2.32,3.1 2.32,8.4 v 0 V 0 h -4.5 v -13.5 q 0,-3.9 -1.45,-5.7 Q 55.9,-21 52.4,-21 v 0 q -2.48,0 -4.54,1.09 -2.06,1.09 -2.71,3.46 v 0 l 0.55,-2.75 z m 35.19,0.5 v 0 q -4.32,0 -7.27,-1.78 -2.95,-1.77 -4.46,-4.71 -1.52,-2.94 -1.52,-6.46 v 0 q 0,-3.43 1.42,-6.28 1.41,-2.85 4.1,-4.56 2.68,-1.71 6.48,-1.71 v 0 q 3.05,0 5.44,1.21 2.39,1.21 3.75,3.53 1.36,2.31 1.36,5.61 v 0 q 0,0.52 -0.03,1.14 -0.04,0.61 -0.16,1.26 v 0 H 72.25 q 0.32,3.4 1.62,5.3 1.3,1.9 3.27,2.67 1.98,0.78 4.3,0.78 v 0 q 1.7,0 3.56,-0.35 1.84,-0.35 3.5,-1.1 v 0 l 0.59,3.55 q -1.42,0.62 -3.47,1.26 -2.05,0.64 -4.73,0.64 z m -8.25,-15.85 v 0 h 12.91 q 0,-1.72 -0.66,-3 -0.64,-1.28 -1.97,-1.96 Q 81.59,-21 79.55,-21 v 0 q -3,0 -4.62,1.49 -1.61,1.48 -2.29,4.16 z M 99.69,0 h -4.75 v -35 h 21.35 v 4.3 h -16.6 v 10.25 h 12.8 v 4.3 h -12.8 z m 23,0 h -4.8 v -24.5 h 3.7 l 0.55,4.05 q 1.88,-2.33 3.59,-3.44 1.71,-1.11 3.66,-1.11 v 0 q 0.63,0 1.15,0.15 v 0 l -0.45,4.95 q -0.32,-0.08 -0.69,-0.11 -0.36,-0.04 -0.81,-0.04 v 0 q -1.95,0 -3.59,0.86 -1.63,0.87 -2.31,1.89 v 0 z m 16.35,0.5 v 0 q -2.28,0 -3.98,-0.93 -1.7,-0.92 -2.63,-2.52 -0.94,-1.6 -0.94,-3.65 v 0 q 0,-2.08 0.91,-3.56 0.91,-1.49 2.45,-2.48 1.54,-0.99 3.44,-1.57 1.9,-0.59 3.94,-0.85 2.03,-0.27 3.91,-0.29 v 0 q 0,-3.5 -1.38,-4.58 -1.37,-1.07 -3.97,-1.07 v 0 q -1.38,0 -2.94,0.42 -1.56,0.43 -3.51,1.78 v 0 l -0.65,-3.65 q 1.47,-1.13 3.67,-1.84 2.2,-0.71 4.63,-0.71 v 0 q 3.1,0 5,1.09 1.9,1.08 2.77,3.66 0.88,2.57 0.88,7 v 0 5 q 0,1.75 0.16,2.89 0.16,1.13 0.75,1.7 0.59,0.56 1.89,0.56 v 0 h 0.45 l -0.7,3.6 h -0.35 q -2.18,0 -3.36,-0.42 -1.19,-0.43 -1.82,-1.23 -0.62,-0.8 -1.12,-1.95 v 0 q -1.38,1.6 -3.25,2.6 -1.88,1 -4.25,1 z m 0.85,-3.6 v 0 q 1.8,0 3.49,-0.9 1.68,-0.9 2.76,-2.4 v 0 -5.85 q -3.58,0.12 -5.79,0.7 -2.21,0.57 -3.24,1.72 -1.02,1.15 -1.02,2.98 v 0 q 0,1.97 1.06,2.86 1.06,0.89 2.74,0.89 z M 161.84,0 h -4.5 v -24.5 h 3.5 l 0.9,4.7 -1.75,-0.75 q 2.47,-2.75 4.83,-3.6 2.37,-0.85 4.62,-0.85 v 0 q 5.37,0 7.68,3.1 2.32,3.1 2.32,8.4 v 0 V 0 h -4.5 v -13.5 q 0,-3.9 -1.45,-5.7 -1.45,-1.8 -4.95,-1.8 v 0 q -2.48,0 -4.54,1.09 -2.06,1.09 -2.71,3.46 v 0 l 0.55,-2.75 z m 27.89,0 h -4.5 v -37.5 h 4.5 v 24.05 l 9,-11.05 h 5.5 l -9.75,11.4 10,13.1 h -5.5 l -9.25,-12.45 z m 31.85,0 h -12.95 v -35 h 12.95 q 5.08,0 9,2.07 3.93,2.08 6.16,5.99 2.24,3.91 2.24,9.44 v 0 q 0,5.52 -2.24,9.44 -2.23,3.91 -6.16,5.98 -3.92,2.08 -9,2.08 z m -8.2,-30.7 v 26.4 h 8.2 q 4,0 6.71,-1.66 2.72,-1.67 4.1,-4.64 1.39,-2.98 1.39,-6.9 v 0 q 0,-3.93 -1.39,-6.9 -1.38,-2.98 -4.1,-4.64 -2.71,-1.66 -6.71,-1.66 v 0 z m 42.1,31.2 v 0 q -4.33,0 -7.28,-1.78 -2.95,-1.77 -4.46,-4.71 -1.51,-2.94 -1.51,-6.46 v 0 q 0,-3.43 1.41,-6.28 1.41,-2.85 4.1,-4.56 2.69,-1.71 6.49,-1.71 v 0 q 3.05,0 5.44,1.21 2.38,1.21 3.75,3.53 1.36,2.31 1.36,5.61 v 0 q 0,0.52 -0.04,1.14 -0.04,0.61 -0.16,1.26 v 0 h -17.75 q 0.32,3.4 1.62,5.3 1.3,1.9 3.28,2.67 1.97,0.78 4.3,0.78 v 0 q 1.7,0 3.55,-0.35 1.85,-0.35 3.5,-1.1 v 0 l 0.6,3.55 q -1.43,0.62 -3.48,1.26 -2.05,0.64 -4.72,0.64 z m -8.25,-15.85 v 0 h 12.9 q 0,-1.72 -0.65,-3 -0.65,-1.28 -1.98,-1.96 -1.32,-0.69 -3.37,-0.69 v 0 q -3,0 -4.61,1.49 -1.62,1.48 -2.29,4.16 z M 276.28,0.5 v 0 q -3.25,0 -5.39,-0.78 -2.14,-0.77 -3.01,-1.37 v 0 L 268.43,-6 q 0.8,0.7 2.82,1.6 2.03,0.9 4.83,0.9 v 0 q 2.37,0 3.63,-0.8 1.27,-0.8 1.27,-2.25 v 0 q 0,-1.28 -0.82,-2.06 -0.81,-0.79 -1.95,-1.25 -1.13,-0.47 -2.13,-0.74 v 0 q -1.68,-0.45 -3.47,-1.14 -1.78,-0.69 -3.01,-2.06 -1.22,-1.38 -1.22,-3.85 v 0 q 0,-1.88 0.9,-3.56 0.9,-1.69 2.92,-2.74 2.03,-1.05 5.38,-1.05 v 0 q 2.45,0 3.98,0.51 1.54,0.51 2.67,1.09 v 0 l -0.55,4.1 q -1.08,-0.9 -2.5,-1.53 -1.43,-0.62 -3.5,-0.62 v 0 q -2.1,0 -3.43,0.79 -1.32,0.78 -1.32,2.51 v 0 q 0,1.72 1.41,2.45 1.41,0.72 4.29,1.6 v 0 q 0.9,0.25 2.08,0.72 1.19,0.48 2.32,1.28 1.12,0.8 1.86,2.09 0.74,1.29 0.74,3.21 v 0 q 0,1.62 -0.78,3.31 -0.77,1.69 -2.8,2.84 -2.02,1.15 -5.77,1.15 z M 294.52,0 h -4.5 v -24.5 h 4.5 z m 0,-30 h -4.5 v -5 h 4.5 z m 16,42.5 v 0 q -3.35,0 -5.99,-0.82 -2.63,-0.83 -4.15,-2.46 -1.51,-1.62 -1.51,-4.02 v 0 q 0,-2 1.14,-3.44 1.14,-1.43 3.11,-2.31 v 0 q -1.17,-0.58 -1.79,-1.36 -0.61,-0.79 -0.61,-1.74 v 0 q 0,-1.13 0.69,-2.04 0.69,-0.91 2.21,-1.51 v 0 q -2.05,-1.27 -3.15,-3.44 -1.1,-2.16 -1.1,-4.81 v 0 q 0,-2.68 1.2,-4.84 1.2,-2.16 3.46,-3.44 2.27,-1.27 5.44,-1.27 v 0 q 1.7,0 3.21,0.5 1.52,0.5 2.79,1.4 v 0 q 1.13,-0.65 2.66,-1.08 1.54,-0.42 3.44,-0.42 v 0 q 0.13,0 0.21,0 0.09,0 0.19,0 v 0 l -0.55,3 q -0.3,0 -0.57,0 -0.28,0 -0.58,0 v 0 q -0.25,0 -1.15,0.07 -0.9,0.08 -1.65,0.28 v 0 q 1.03,1.2 1.59,2.69 0.56,1.49 0.56,3.11 v 0 q 0,2.8 -1.21,5.01 -1.21,2.22 -3.49,3.5 -2.27,1.29 -5.45,1.29 v 0 q -0.9,0 -1.72,-0.11 -0.83,-0.12 -1.58,-0.34 v 0 q -1.15,0.37 -1.15,1.3 v 0 q 0,0.55 0.65,0.96 0.65,0.41 2.1,0.64 v 0 l 6.55,1.05 q 3.98,0.62 6.14,2.3 2.16,1.68 2.16,4.75 v 0 q 0,2.55 -1.49,4.24 -1.48,1.69 -4.21,2.52 -2.72,0.84 -6.4,0.84 z m 0.4,-4 v 0 q 3.45,0 5.3,-0.89 1.85,-0.88 1.85,-2.61 v 0 q 0,-1.35 -1.16,-2.12 -1.16,-0.78 -3.34,-1.18 v 0 L 306.6,0.53 q -1.38,0.6 -2.4,1.61 -1.03,1.01 -1.03,2.36 v 0 q 0,2.1 2.11,3.05 2.12,0.95 5.64,0.95 z m -1.45,-17.75 v 0 q 2.85,0 4.35,-1.71 1.5,-1.72 1.5,-4.44 v 0 q 0,-2.63 -1.5,-4.31 -1.5,-1.69 -4.35,-1.69 v 0 q -2.85,0 -4.32,1.69 -1.48,1.68 -1.48,4.31 v 0 q 0,2.72 1.48,4.44 1.47,1.71 4.32,1.71 z M 330.02,0 h -4.5 v -24.5 h 3.5 l 0.9,4.7 -1.75,-0.75 q 2.47,-2.75 4.84,-3.6 2.36,-0.85 4.61,-0.85 v 0 q 5.37,0 7.69,3.1 2.31,3.1 2.31,8.4 v 0 V 0 h -4.5 v -13.5 q 0,-3.9 -1.45,-5.7 -1.45,-1.8 -4.95,-1.8 v 0 q -2.48,0 -4.54,1.09 -2.06,1.09 -2.71,3.46 v 0 l 0.55,-2.75 z"
                                 opacity="1"
                                 fill="#ffffff"
                                 class="wordmark-text-0"
                                 data-fill-palette-color="primary"
                                 id="text-0" />
                            </svg>
                          </g>
                        </svg>
                      </g>
                      <g
                         transform="translate(0,70.720784)"
                         id="g845">
                        <svg
                           viewBox="0 0 232.20979 11.921627"
                           height="11.921627"
                           width="232.20979"
                           version="1.1"
                           id="svg843">
                          <g
                             id="g841">
                            <svg
                               width="232.20979"
                               viewBox="0.69999999 -35.900002 908.57001 46.650002"
                               height="11.921627"
                               data-palette-color="#35185a"
                               version="1.1"
                               id="svg839">
                              <path
                                 d="M 19.1,0 H 12.05 V -15 L 0.7,-32.4 v -3 h 8.4 l 6,12.8 h 1 l 5.95,-12.8 h 8.5 v 3 l -11.75,17.7 0.3,5.05 z m 27.3,0.5 v 0 q -2.8,0 -5.48,-0.78 -2.67,-0.77 -4.82,-2.77 -2.15,-2 -3.4,-5.55 -1.25,-3.55 -1.25,-9.1 v 0 q 0,-5.55 1.25,-9.1 1.25,-3.55 3.4,-5.55 2.15,-2 4.82,-2.78 2.68,-0.77 5.48,-0.77 v 0 q 2.95,0 5.62,0.8 2.68,0.8 4.78,2.8 2.1,2 3.32,5.55 1.23,3.55 1.23,9.05 v 0 q 0,5.5 -1.23,9.05 -1.22,3.55 -3.32,5.55 -2.1,2 -4.78,2.8 -2.67,0.8 -5.62,0.8 z m 0,-7 v 0 q 3.15,0 4.75,-1.33 1.6,-1.32 2.17,-3.85 0.58,-2.52 0.58,-6.02 v 0 q 0,-3.55 -0.58,-6.05 -0.57,-2.5 -2.17,-3.83 -1.6,-1.32 -4.75,-1.32 v 0 q -3.1,0 -4.73,1.35 -1.62,1.35 -2.17,3.85 -0.55,2.5 -0.55,6 v 0 q 0,3.45 0.55,5.97 0.55,2.53 2.17,3.88 1.63,1.35 4.73,1.35 z m 33.05,7 v 0 Q 74.3,0.5 71.37,-1.2 68.45,-2.9 67.22,-6.23 66,-9.55 66,-14.35 v 0 -13 l 0.05,-5.05 -0.05,-3 h 7.09 v 21.55 q 0,3.5 1.41,5.67 1.4,2.18 4.95,2.18 v 0 q 3.55,0 5.02,-2.03 1.48,-2.02 1.48,-5.82 v 0 -21.55 h 6.95 v 21.05 q 0,4.7 -1.18,8.02 Q 90.55,-3 87.62,-1.25 84.7,0.5 79.45,0.5 Z M 106.39,0 h -7 v -27.35 l -1,-5.05 1,-3 h 12 q 3.65,0 6.58,1.13 2.92,1.12 4.65,3.79 1.72,2.68 1.72,7.38 v 0 q 0,4.45 -1.67,7.1 -1.68,2.65 -4.63,3.95 v 0 l 1.45,1.3 4.45,5.2 2.85,2.55 v 3 h -9.25 l -7,-10.65 h -4.15 v 2.6 l 0.5,5 z m -0.5,-28.9 0.5,11.9 h 4.9 q 3.3,0 4.5,-1.73 1.2,-1.72 1.2,-4.37 v 0 q 0,-2.8 -1.27,-4.3 -1.28,-1.5 -4.63,-1.5 v 0 z M 159.24,0 h -8.75 l -9,-27.45 -1.5,-4.95 v -3 h 7.4 l 7.05,27.8 h 1 l 6.95,-27.8 h 7.3 v 3 l -1.5,4.95 z m 21.65,0 h -7 v -27.4 l -0.5,-5 0.5,-3 h 7 z m 16.29,0.5 v 0 q -3.85,0 -6.55,-1.03 -2.7,-1.02 -4.05,-2.17 v 0 -6.9 q 1.75,1 4.68,2.1 2.92,1.1 6.47,1.1 v 0 q 2.3,0 3.43,-0.9 1.12,-0.9 1.12,-2.45 v 0 q 0,-1.4 -0.9,-2.3 -0.9,-0.9 -2.7,-1.65 -1.8,-0.75 -4.6,-1.75 v 0 q -4,-1.45 -6.2,-3.75 -2.2,-2.3 -2.2,-6.2 v 0 q 0,-2.75 1.23,-5.15 1.22,-2.4 3.85,-3.88 2.62,-1.47 6.72,-1.47 v 0 q 1.6,0 3.18,0.13 1.57,0.12 2.67,0.32 v 0 l 5.65,4.15 -2.5,5.1 -9.15,-3.25 q -1.8,0 -2.97,0.87 -1.18,0.88 -1.18,2.48 v 0 q 0,2 1.68,3.05 1.67,1.05 4.72,2.05 v 0 q 5.8,1.9 8.15,4.57 2.35,2.68 2.35,6.28 v 0 q 0,2.9 -1.2,5.32 -1.2,2.43 -4.02,3.88 -2.83,1.45 -7.68,1.45 z m 25,-0.5 h -7 v -27.4 l -0.5,-5 0.5,-3 h 7 z m 20.15,0.5 v 0 q -2.8,0 -5.48,-0.78 -2.67,-0.77 -4.82,-2.77 -2.15,-2 -3.4,-5.55 -1.25,-3.55 -1.25,-9.1 v 0 q 0,-5.55 1.25,-9.1 1.25,-3.55 3.4,-5.55 2.15,-2 4.82,-2.78 2.68,-0.77 5.48,-0.77 v 0 q 2.95,0 5.62,0.8 2.68,0.8 4.78,2.8 2.1,2 3.32,5.55 1.23,3.55 1.23,9.05 v 0 q 0,5.5 -1.23,9.05 -1.22,3.55 -3.32,5.55 -2.1,2 -4.78,2.8 -2.67,0.8 -5.62,0.8 z m 0,-7 v 0 q 3.15,0 4.75,-1.33 1.6,-1.32 2.17,-3.85 0.58,-2.52 0.58,-6.02 v 0 q 0,-3.55 -0.58,-6.05 -0.57,-2.5 -2.17,-3.83 -1.6,-1.32 -4.75,-1.32 v 0 q -3.1,0 -4.73,1.35 -1.62,1.35 -2.17,3.85 -0.55,2.5 -0.55,6 v 0 q 0,3.45 0.55,5.97 0.55,2.53 2.17,3.88 1.63,1.35 4.73,1.35 z M 270.98,0 h -7.5 v -27.35 l -1,-5 1,-3 h 6.05 l 12.1,17.6 2.4,4.15 h 0.5 v -21.75 h 7.35 v 3 l -0.5,5 V 0 h -5.75 l -14.65,-21.6 h -0.5 v 3 z m 35.39,-3.5 -7.2,14.25 -1.3,-0.45 2.5,-10.3 -3,-4 4,-3.85 z m 33.55,4 v 0 q -2.95,0 -5.93,-0.85 -2.97,-0.85 -5.45,-2.88 -2.47,-2.02 -3.97,-5.55 -1.5,-3.52 -1.5,-8.92 v 0 q 0,-5.45 2.12,-9.53 2.13,-4.07 5.83,-6.37 3.7,-2.3 8.4,-2.3 v 0 q 2.25,0 4.32,0.4 2.08,0.4 3.18,0.9 v 0 l 5.55,5.05 -3.5,5.25 -8.55,-4.4 q -2.8,0 -5.05,1.35 -2.25,1.35 -3.58,3.82 -1.32,2.48 -1.32,5.83 v 0 q 0,3.85 1.37,6.35 1.38,2.5 3.78,3.72 2.4,1.23 5.35,1.23 v 0 q 3,0 5.15,-0.53 2.15,-0.52 3.6,-1.2 1.45,-0.67 2.2,-1.17 v 0 6.8 q -1.4,0.95 -4.28,1.97 -2.87,1.03 -7.72,1.03 z m 30.99,0 v 0 q -2.79,0 -5.47,-0.78 -2.68,-0.77 -4.82,-2.77 -2.16,-2 -3.41,-5.55 -1.25,-3.55 -1.25,-9.1 v 0 q 0,-5.55 1.25,-9.1 1.25,-3.55 3.41,-5.55 2.14,-2 4.82,-2.78 2.68,-0.77 5.47,-0.77 v 0 q 2.96,0 5.63,0.8 2.67,0.8 4.77,2.8 2.1,2 3.33,5.55 1.23,3.55 1.23,9.05 v 0 q 0,5.5 -1.23,9.05 -1.23,3.55 -3.33,5.55 -2.1,2 -4.77,2.8 -2.67,0.8 -5.63,0.8 z m 0,-7 v 0 q 3.15,0 4.75,-1.33 1.6,-1.32 2.18,-3.85 0.57,-2.52 0.57,-6.02 v 0 q 0,-3.55 -0.57,-6.05 -0.58,-2.5 -2.18,-3.83 -1.6,-1.32 -4.75,-1.32 v 0 q -3.1,0 -4.72,1.35 -1.63,1.35 -2.18,3.85 -0.55,2.5 -0.55,6 v 0 q 0,3.45 0.55,5.97 0.55,2.53 2.18,3.88 1.62,1.35 4.72,1.35 z M 402.96,0 h -10.9 v -27.35 l -1,-5 1,-3.05 h 10.9 q 3.6,0 6.93,0.67 3.32,0.68 5.95,2.53 2.62,1.85 4.15,5.3 1.52,3.45 1.52,8.95 v 0 q 0,5.5 -1.55,9.02 -1.55,3.53 -4.2,5.48 -2.65,1.95 -5.97,2.7 Q 406.46,0 402.96,0 Z m -3.8,-28.9 v 22.4 h 5.3 q 5.2,0 7.4,-3.08 2.2,-3.07 2.2,-8.37 v 0 q 0,-5.3 -2.22,-8.13 -2.23,-2.82 -7.38,-2.82 v 0 z M 451.61,0 h -23.9 l -1,-3 1,-5 v -27.4 h 22.7 l 2.5,1.5 -2.8,5.5 -5,-0.5 h -10.5 v 7.75 h 13.5 v 6.25 h -4.9 l -8.6,-0.5 v 8.9 h 16 l 3.95,3.3 z m 17.85,0 h -10.9 v -27.35 l -1,-5 1,-3.05 h 10.9 q 3.6,0 6.92,0.67 3.33,0.68 5.95,2.53 2.63,1.85 4.15,5.3 1.53,3.45 1.53,8.95 v 0 q 0,5.5 -1.55,9.02 -1.55,3.53 -4.2,5.48 -2.65,1.95 -5.98,2.7 Q 472.96,0 469.46,0 Z m -3.8,-28.9 v 22.4 h 5.3 q 5.2,0 7.4,-3.08 2.2,-3.07 2.2,-8.37 v 0 q 0,-5.3 -2.23,-8.13 -2.22,-2.82 -7.37,-2.82 v 0 z M 523.3,0 h -9.9 l -9,-27.45 -1.5,-4.95 v -3 h 7.45 l 7.25,26.8 h 1 l 5.3,-26.8 H 534 l 4.2,20.45 1,6.35 h 1 l 7.2,-26.8 h 7.4 v 3 l -1.5,4.95 L 544.4,0 h -9.9 l -5.2,-27.6 h -1.05 l -1.05,7.15 z M 566,0 h -7 v -27.4 l -0.5,-5 0.5,-3 h 7 z m 22.25,0 h -7 v -29 l -11,0.5 v -6.9 h 29.25 v 6.9 L 588.25,-29 v 21 l 0.55,5 z m 23.49,0 h -7.5 v -27.35 l -0.5,-5 0.5,-3.05 h 7 v 14.6 h 14.45 v -14.6 h 7 v 18.8 l 0.5,3.45 V 0 h -7.5 v -14.25 h -14.45 v 4.05 z m 47.45,0 h -7 v -27.35 l -1,-5.05 1,-3 h 12 q 3.65,0 6.57,1.13 2.93,1.12 4.65,3.79 1.73,2.68 1.73,7.38 v 0 q 0,4.7 -1.85,7.42 -1.85,2.73 -5.13,3.88 -3.27,1.15 -7.47,1.15 v 0 h -3.5 v 2.6 l 0.5,5 z m -0.5,-28.9 0.5,11.9 h 4.9 q 3.3,0 4.5,-1.73 1.2,-1.72 1.2,-4.37 v 0 q 0,-2.8 -1.28,-4.3 -1.27,-1.5 -4.62,-1.5 v 0 z M 689.14,0 h -7 v -27.35 l -1,-5.05 1,-3 h 12 q 3.65,0 6.57,1.13 2.93,1.12 4.65,3.79 1.73,2.68 1.73,7.38 v 0 q 0,4.45 -1.68,7.1 -1.67,2.65 -4.62,3.95 v 0 l 1.45,1.3 4.45,5.2 2.85,2.55 v 3 h -9.25 l -7,-10.65 h -4.15 v 2.6 l 0.5,5 z m -0.5,-28.9 0.5,11.9 h 4.9 q 3.3,0 4.5,-1.73 1.2,-1.72 1.2,-4.37 v 0 q 0,-2.8 -1.28,-4.3 -1.27,-1.5 -4.62,-1.5 v 0 z M 737.93,0 h -23.9 l -1,-3 1,-5 v -27.4 h 22.7 l 2.5,1.5 -2.8,5.5 -5,-0.5 h -10.5 v 7.75 h 13.5 v 6.25 h -4.9 l -8.6,-0.5 v 8.9 h 16 l 3.95,3.3 z m 21,0.5 v 0 q -2.95,0 -5.92,-0.85 -2.98,-0.85 -5.45,-2.88 -2.48,-2.02 -3.98,-5.55 -1.5,-3.52 -1.5,-8.92 v 0 q 0,-5.45 2.13,-9.53 2.12,-4.07 5.82,-6.37 3.7,-2.3 8.4,-2.3 v 0 q 2.25,0 4.33,0.4 2.07,0.4 3.17,0.9 v 0 l 5.55,5.05 -3.5,5.25 -8.55,-4.4 q -2.8,0 -5.05,1.35 -2.25,1.35 -3.57,3.82 -1.33,2.48 -1.33,5.83 v 0 q 0,3.85 1.38,6.35 1.37,2.5 3.77,3.72 2.4,1.23 5.35,1.23 v 0 q 3,0 5.15,-0.53 2.15,-0.52 3.6,-1.2 1.45,-0.67 2.2,-1.17 v 0 6.8 q -1.4,0.95 -4.27,1.97 -2.88,1.03 -7.73,1.03 z M 783.78,0 h -7 v -27.4 l -0.5,-5 0.5,-3 h 7 z m 16.3,0.5 v 0 q -3.85,0 -6.55,-1.03 -2.7,-1.02 -4.05,-2.17 v 0 -6.9 q 1.75,1 4.67,2.1 2.93,1.1 6.48,1.1 v 0 q 2.3,0 3.42,-0.9 1.13,-0.9 1.13,-2.45 v 0 q 0,-1.4 -0.9,-2.3 -0.9,-0.9 -2.7,-1.65 -1.8,-0.75 -4.6,-1.75 v 0 q -4,-1.45 -6.2,-3.75 -2.2,-2.3 -2.2,-6.2 v 0 q 0,-2.75 1.22,-5.15 1.23,-2.4 3.85,-3.88 2.63,-1.47 6.73,-1.47 v 0 q 1.6,0 3.17,0.13 1.58,0.12 2.68,0.32 v 0 l 5.65,4.15 -2.5,5.1 -9.15,-3.25 q -1.8,0 -2.98,0.87 -1.17,0.88 -1.17,2.48 v 0 q 0,2 1.67,3.05 1.68,1.05 4.73,2.05 v 0 q 5.8,1.9 8.15,4.57 2.35,2.68 2.35,6.28 v 0 q 0,2.9 -1.2,5.32 -1.2,2.43 -4.03,3.88 -2.82,1.45 -7.67,1.45 z M 825.07,0 h -7 v -27.4 l -0.5,-5 0.5,-3 h 7 z m 20.15,0.5 v 0 q -2.8,0 -5.47,-0.78 -2.68,-0.77 -4.83,-2.77 -2.15,-2 -3.4,-5.55 -1.25,-3.55 -1.25,-9.1 v 0 q 0,-5.55 1.25,-9.1 1.25,-3.55 3.4,-5.55 2.15,-2 4.83,-2.78 2.67,-0.77 5.47,-0.77 v 0 q 2.95,0 5.63,0.8 2.67,0.8 4.77,2.8 2.1,2 3.33,5.55 1.22,3.55 1.22,9.05 v 0 q 0,5.5 -1.22,9.05 -1.23,3.55 -3.33,5.55 -2.1,2 -4.77,2.8 -2.68,0.8 -5.63,0.8 z m 0,-7 v 0 q 3.15,0 4.75,-1.33 1.6,-1.32 2.18,-3.85 0.57,-2.52 0.57,-6.02 v 0 q 0,-3.55 -0.57,-6.05 -0.58,-2.5 -2.18,-3.83 -1.6,-1.32 -4.75,-1.32 v 0 q -3.1,0 -4.72,1.35 -1.63,1.35 -2.18,3.85 -0.55,2.5 -0.55,6 v 0 q 0,3.45 0.55,5.97 0.55,2.53 2.18,3.88 1.62,1.35 4.72,1.35 z M 873.87,0 h -7.5 v -27.35 l -1,-5 1,-3 h 6.05 l 12.1,17.6 2.4,4.15 h 0.5 v -21.75 h 7.35 v 3 l -0.5,5 V 0 h -5.75 l -14.65,-21.6 h -0.5 v 3 z m 35.4,-4 -4.5,4.5 -4.5,-4.5 4.5,-4.5 z"
                                 opacity="1"
                                 fill="#ffffff"
                                 class="slogan-text-1"
                                 data-fill-palette-color="secondary"
                                 id="text-1" />
                            </svg>
                          </g>
                        </svg>
                      </g>
                    </svg>
                  </g>
                </svg>
              </g>
              <g
                 transform="translate(0,0.20660603)"
                 id="g874">
                <svg
                   viewBox="0 0 85.49215 82.642411"
                   height="82.64241"
                   width="85.492149"
                   version="1.1"
                   id="svg872">
                  <g
                     id="g870">
                    <svg
                       data-name="Layer 1"
                       viewBox="2 2 60 58"
                       x="0"
                       y="0"
                       height="82.64241"
                       width="85.492149"
                       class="icon-icon-0"
                       data-fill-palette-color="accent"
                       id="icon-0"
                       version="1.1">
                      <path
                         d="M 40.077,44.659 A 1.752,1.752 0 0 1 40.441,42.74 L 42.077,41.105 38.9,37.924 37.266,39.557 A 1.747,1.747 0 0 1 35.36,39.928 L 35.28,39.893 A 1.717,1.717 0 0 1 34.255,38.311 V 36 h -4.5 v 2.311 a 1.744,1.744 0 0 1 -1.091,1.611 l -0.014,0.006 a 1.748,1.748 0 0 1 -1.907,-0.371 l -1.633,-1.633 -3.182,3.181 1.635,1.634 A 1.775,1.775 0 0 1 22.316,45.75 H 20 v 4.5 h 2.311 a 1.775,1.775 0 0 1 1.248,3.01 l -1.636,1.64 3.182,3.181 1.634,-1.633 a 1.741,1.741 0 0 1 1.906,-0.371 l 0.08,0.035 a 1.717,1.717 0 0 1 1.025,1.582 V 60 h 4.5 v -2.311 a 1.744,1.744 0 0 1 1.091,-1.611 l 0.014,-0.006 a 1.746,1.746 0 0 1 1.907,0.371 L 38.9,58.076 42.077,54.9 40.442,53.266 a 1.775,1.775 0 0 1 1.247,-3.011 H 44 v -4.5 H 41.689 A 1.745,1.745 0 0 1 40.077,44.659 Z M 32,52 a 4,4 0 1 1 4,-4 4,4 0 0 1 -4,4 z"
                         fill="#ffffff"
                         data-fill-palette-color="accent"
                         id="path853" />
                      <path
                         d="M 35.968,11.685 A 3.958,3.958 0 0 0 35,9.382 V 5 a 3,3 0 0 0 -6,0 v 4.382 a 3.958,3.958 0 0 0 -0.968,2.3 L 19.083,28 H 16 v -2 h -2 v 6 h 2 v -2 h 1.986 l -5.13,9.354 A 4.886,4.886 0 0 0 14,45.471 V 52 h 2 V 45.259 L 24.478,30 H 39.522 L 48,45.259 V 52 h 2 v -6.529 a 4.887,4.887 0 0 0 1.144,-6.114 z M 32,10 a 2,2 0 1 1 -2,2 2,2 0 0 1 2,-2 z m -6.411,18 5,-9 h 2.822 l 5,9 z"
                         fill="#ffffff"
                         data-fill-palette-color="accent"
                         id="path855" />
                      <rect
                         x="52"
                         y="50"
                         width="2"
                         height="2"
                         fill="#ffffff"
                         data-fill-palette-color="accent"
                         id="rect857" />
                      <rect
                         x="56"
                         y="50"
                         width="2"
                         height="2"
                         fill="#ffffff"
                         data-fill-palette-color="accent"
                         id="rect859" />
                      <rect
                         x="60"
                         y="50"
                         width="2"
                         height="2"
                         fill="#ffffff"
                         data-fill-palette-color="accent"
                         id="rect861" />
                      <rect
                         x="2"
                         y="50"
                         width="2"
                         height="2"
                         fill="#ffffff"
                         data-fill-palette-color="accent"
                         id="rect863" />
                      <rect
                         x="6"
                         y="50"
                         width="2"
                         height="2"
                         fill="#ffffff"
                         data-fill-palette-color="accent"
                         id="rect865" />
                      <rect
                         x="10"
                         y="50"
                         width="2"
                         height="2"
                         fill="#ffffff"
                         data-fill-palette-color="accent"
                         id="rect867" />
                    </svg>
                  </g>
                </svg>
              </g>
            </svg>
          </g>
          <defs
             id="defs880" />
        </svg>
        <rect
           width="395.51999"
           height="64.01226"
           fill="none"
           stroke="none"
           visibility="hidden"
           id="rect884"
           x="0"
           y="0" />
      </g>
    </svg>
  </g>
</svg>
